<?xml version="1.0" standalone="no"?><!DOCTYPE svg PUBLIC "-//W3C//DTD SVG 1.1//EN" "http://www.w3.org/Graphics/SVG/1.1/DTD/svg11.dtd"><svg t="1659607068562" class="icon" viewBox="0 0 1024 1024" version="1.1" xmlns="http://www.w3.org/2000/svg" p-id="7061" xmlns:xlink="http://www.w3.org/1999/xlink" width="200" height="200"><defs><style type="text/css"></style></defs><path d="M242.5 874.5l-59.7 29.9S94.5 801.8 78.9 748.5c-15.6-53.2-15.6-112.9-15.6-112.9V459.7c0-12.8 15.7-19 24.4-9.7 16.5 17.7 35.3 36.1 35.3 66v29.9c0 41.6-1.6 92.4 29.9 119.5 22.9 19.9 59.7-89.6 59.7-89.6s29.9 0 29.9 29.9-29.9 89.6 0 149.3 0 119.5 0 119.5zM780.1 874.5l59.7 29.9s88.3-102.6 103.9-155.9c15.6-53.2 15.6-112.9 15.6-112.9V459.7c0-12.8-15.7-19-24.4-9.7-16.5 17.7-35.3 36.1-35.3 66v29.9c0 41.6 1.6 92.4-29.9 119.5-22.9 19.9-59.7-89.6-59.7-89.6s-29.9 0-29.9 29.9 29.9 89.6 0 149.3c-29.8 59.7 0 119.5 0 119.5z" fill="#CCCCCC" p-id="7062"></path><path d="M511.3 97.9c-164.9 0-298.7 133.7-298.7 298.7 0 164.9 133.7 298.7 298.7 298.7S810 561.6 810 396.6c0-164.9-133.7-298.7-298.7-298.7z m0 59.8c111.3 0 204.9 76.1 231.4 179.2H279.9C306.5 233.8 400 157.7 511.3 157.7zM274.6 428.3c58.6 5.5 177 27.7 177 117.7v82c-93.1-23.9-164.2-102.6-177-199.7zM571.1 628v-82.1c0-89.9 118.5-112.2 177-117.7-12.9 97.2-83.9 175.9-177 199.8z" fill="#3366CC" p-id="7063"></path></svg>