<?xml version="1.0" standalone="no"?><!DOCTYPE svg PUBLIC "-//W3C//DTD SVG 1.1//EN" "http://www.w3.org/Graphics/SVG/1.1/DTD/svg11.dtd"><svg t="1659607545207" class="icon" viewBox="0 0 1024 1024" version="1.1" xmlns="http://www.w3.org/2000/svg" p-id="15338" xmlns:xlink="http://www.w3.org/1999/xlink" width="200" height="200"><defs><style type="text/css"></style></defs><path d="M511.734 888.562m-92.952 0a92.952 92.952 0 1 0 185.904 0 92.952 92.952 0 1 0-185.904 0Z" fill="#FFD452" p-id="15339"></path><path d="M144.256 0C69.574 0 8.816 60.758 8.816 135.438s60.758 135.438 135.438 135.438 135.438-60.758 135.438-135.438S218.936 0 144.256 0z m0 256.29c-66.636 0-120.852-54.214-120.852-120.852S77.62 14.588 144.256 14.588s120.852 54.214 120.852 120.852-54.216 120.85-120.852 120.85zM511.732 0c-74.68 0-135.438 60.758-135.438 135.438s60.758 135.438 135.438 135.438c74.68 0 135.438-60.758 135.438-135.438S586.414 0 511.732 0z m0 256.29c-66.636 0-120.85-54.214-120.85-120.852s54.214-120.852 120.85-120.852c66.638 0 120.852 54.214 120.852 120.852s-54.214 120.852-120.852 120.852zM140.864 366.828c-74.68 0-135.438 60.758-135.438 135.44 0 74.682 60.758 135.438 135.438 135.438 74.686 0 135.444-60.758 135.444-135.438 0-74.684-60.758-135.44-135.444-135.44z m0 256.29c-66.636 0-120.852-54.214-120.852-120.852s54.214-120.854 120.852-120.854c66.642 0 120.856 54.214 120.856 120.854 0 66.638-54.214 120.852-120.856 120.852z" fill="#4A555F" p-id="15340"></path><path d="M140.866 398.432c-57.254 0-103.832 46.582-103.832 103.834s46.578 103.832 103.832 103.832 103.832-46.58 103.832-103.832c0-57.252-46.578-103.834-103.832-103.834z" fill="#F58E6F" p-id="15341"></path><path d="M511.732 366.828c-74.68 0-135.438 60.758-135.438 135.44 0 74.682 60.758 135.438 135.438 135.438 74.68 0 135.438-60.758 135.438-135.438 0.002-74.684-60.756-135.44-135.438-135.44z m0 256.29c-66.636 0-120.85-54.214-120.85-120.852s54.214-120.854 120.85-120.854c66.638 0 120.852 54.214 120.852 120.854 0 66.638-54.214 120.852-120.852 120.852z" fill="#4A555F" p-id="15342"></path><path d="M511.734 398.432c-57.254 0-103.832 46.582-103.832 103.834s46.578 103.832 103.832 103.832 103.832-46.58 103.832-103.832c0-57.252-46.578-103.834-103.832-103.834z" fill="#F58E6F" p-id="15343"></path><path d="M1018.134 124.464C1012.964 58.924 959.642 5.6 894.102 0.434c-41.436-3.286-82.416 12.764-110.456 43.1-25.928 28.052-38.544 64.588-35.524 102.878 5.172 65.542 58.492 118.866 124.032 124.03 3.646 0.29 7.342 0.434 10.974 0.434 37.65 0 73.912-15.868 99.482-43.536 25.928-28.05 38.544-64.586 35.524-102.876z m-46.236 92.978c-25.026 27.076-61.604 41.392-98.594 38.458-58.464-4.606-106.026-52.17-110.642-110.634-2.692-34.188 8.562-66.8 31.696-91.83 22.816-24.688 55.174-38.848 88.77-38.848 3.252 0 6.558 0.13 9.824 0.388 58.464 4.612 106.026 52.174 110.642 110.636 2.692 34.186-8.562 66.8-31.696 91.83zM879.742 366.828c-74.68 0-135.438 60.758-135.438 135.44 0 74.682 60.758 135.438 135.438 135.438s135.438-60.758 135.438-135.438c0-74.684-60.758-135.44-135.438-135.44z m0 256.29c-66.636 0-120.852-54.214-120.852-120.852s54.214-120.854 120.852-120.854 120.85 54.214 120.85 120.854c0 66.638-54.214 120.852-120.85 120.852z" fill="#4A555F" p-id="15344"></path><path d="M879.738 398.432c-57.254 0-103.832 46.582-103.832 103.834s46.578 103.832 103.832 103.832c57.258 0 103.836-46.58 103.836-103.832 0.002-57.252-46.576-103.834-103.836-103.834z" fill="#F58E6F" p-id="15345"></path><path d="M511.732 753.122c-74.68 0-135.438 60.758-135.438 135.438S437.052 1024 511.732 1024c74.68 0 135.438-60.758 135.438-135.438s-60.756-135.44-135.438-135.44z m0 256.29c-66.636 0-120.85-54.214-120.85-120.85s54.214-120.852 120.85-120.852c66.638 0 120.852 54.214 120.852 120.852s-54.214 120.85-120.852 120.85z" fill="#4A555F" p-id="15346"></path><path d="M450.856 828.298l-10.36-10.266a100.366 100.366 0 0 0-10.152 11.992l11.842 8.524a85.946 85.946 0 0 1 8.67-10.25z m-15.646 21.73l-13.02-6.576a99.648 99.648 0 0 0-5.96 14.556l13.894 4.44a85.144 85.144 0 0 1 5.086-12.42z m-9.136 38.534c0-4.366 0.332-8.758 0.984-13.054l-14.416-2.194a101.94 101.94 0 0 0-1.15 15.494l2.968 0.054 11.614-0.3z m14.986 71.088a99.872 99.872 0 0 0 11.972 10.178l8.548-11.818a86.134 86.134 0 0 1-10.234-8.698l-10.286 10.338z m-13.898-57.356l-14.398 2.328a99.94 99.94 0 0 0 3.718 15.274l13.856-4.564a85.84 85.84 0 0 1-3.176-13.038z m8.356 25.414l-12.964 6.686a100.836 100.836 0 0 0 8.262 13.356l11.766-8.624a86.952 86.952 0 0 1-7.064-11.418z m36.906-115.276l-6.706-12.954a100.974 100.974 0 0 0-13.338 8.286l8.642 11.752a86.66 86.66 0 0 1 11.402-7.084z m115.352 36.664l12.944-6.728a101.308 101.308 0 0 0-8.314-13.322l-11.738 8.666a85.614 85.614 0 0 1 7.108 11.384z m8.472 25.384l14.388-2.378a99.566 99.566 0 0 0-3.78-15.262l-13.838 4.62a85.184 85.184 0 0 1 3.23 13.02z m-98.424-70.456l-2.346-14.398a99.926 99.926 0 0 0-15.272 3.746l4.586 13.846a85.686 85.686 0 0 1 13.032-3.194z m74.534 145.05l10.324 10.31a100.958 100.958 0 0 0 10.194-11.95l-11.794-8.576a86.526 86.526 0 0 1-8.724 10.216z m-105.912 28.944a99.7 99.7 0 0 0 14.54 5.982l4.474-13.884a85.156 85.156 0 0 1-12.412-5.11l-6.602 13.012z m103.666-170.962l-8.51 11.852a86.71 86.71 0 0 1 10.276 8.662l10.238-10.39a101.61 101.61 0 0 0-12.004-10.124z m-19.38 157.794l6.658 12.982a100.734 100.734 0 0 0 13.368-8.234l-8.596-11.786a86.228 86.228 0 0 1-11.43 7.038z m61.244-77.046h-14.588l0.004 0.758c0 4.5-0.352 9.002-1.04 13.388l14.406 2.27c0.812-5.134 1.22-10.402 1.22-15.794l-0.002-0.622z m-23.876 39.608l13.002 6.62a100.408 100.408 0 0 0 6.012-14.528l-13.876-4.498a85.57 85.57 0 0 1-5.138 12.406z m-46.01-134.418l-4.406 13.904a85.594 85.594 0 0 1 12.432 5.058l6.544-13.036a99.646 99.646 0 0 0-14.57-5.926z m-30.358-4.68h-0.57v14.588h0.57c4.308 0 8.642 0.324 12.884 0.96l2.166-14.426a101.734 101.734 0 0 0-15.05-1.122z m-13.224 184.894l-2.222 14.416c5.062 0.784 10.242 1.18 15.562 1.18h0.042l0.01-1.792-0.166-12.792a87.324 87.324 0 0 1-13.226-1.012z m26.786-0.056l2.288 14.408a99.676 99.676 0 0 0 15.286-3.684l-4.53-13.866a85.094 85.094 0 0 1-13.044 3.142zM153.8 755.878l-14.018 4.022a159.606 159.606 0 0 0 4.91 14.472l13.572-5.352a144.16 144.16 0 0 1-4.464-13.142z m10.152 25.812l-13.002 6.61a157.754 157.754 0 0 0 7.564 13.272l12.308-7.82a148.136 148.136 0 0 1-6.87-12.062z m3.34 32.374a162.18 162.18 0 0 0 9.924 11.608l10.628-9.99a147.52 147.52 0 0 1-9.022-10.558l-11.53 8.94z m-18.554-85.448l-14.53 1.286a159.888 159.888 0 0 0 2.07 15.134l14.34-2.674a144.59 144.59 0 0 1-1.88-13.746z m-0.58-57.682h-14.588v14.588h14.588v-14.588z m0 29.176h-14.588v14.588h14.588v-14.588z m152.132 176.278h14.588V861.8h-14.588v14.588z m-112.106-40.098a164.13 164.13 0 0 0 11.914 9.536l8.576-11.804a148.096 148.096 0 0 1-10.85-8.68l-9.64 10.948z m141.28 25.51v14.588h14.588V861.8h-14.588z m-59.352 12.752c5.01 0.762 10.12 1.292 15.186 1.576l0.816-14.564a146.262 146.262 0 0 1-13.808-1.434l-2.194 14.422z m-29.594-7.436a158.732 158.732 0 0 0 14.63 4.428l3.542-14.15a144.164 144.164 0 0 1-13.282-4.02l-4.89 13.742z m-27.636-12.922a159.026 159.026 0 0 0 13.51 7.12l6.172-13.214a145.668 145.668 0 0 1-12.274-6.47l-7.408 12.564zM741.368 861.566l0.816 14.564a161.552 161.552 0 0 0 15.186-1.576l-2.194-14.42a146.784 146.784 0 0 1-13.808 1.432z m53.55-13.468l6.174 13.214a159.602 159.602 0 0 0 13.51-7.12l-7.408-12.564a145.124 145.124 0 0 1-12.276 6.47z m-111.486 28.29h14.588V861.8h-14.588v14.588z m135.376-42.368l8.576 11.804a164.022 164.022 0 0 0 11.914-9.536l-9.64-10.95a148.122 148.122 0 0 1-10.85 8.682z m-106.202 42.368h14.588V861.8h-14.588v14.588z m56.186-18.994l3.542 14.15a158.732 158.732 0 0 0 14.63-4.428l-4.892-13.742a144.124 144.124 0 0 1-13.28 4.02z m110.532-142.696h14.588v-14.588h-14.588v14.588z m-2.46 27.664l14.34 2.674a159.24 159.24 0 0 0 2.07-15.134l-14.53-1.286a144.59 144.59 0 0 1-1.88 13.746zM839.64 815.68l10.628 9.99a162.18 162.18 0 0 0 9.924-11.608l-11.53-8.942a147.114 147.114 0 0 1-9.022 10.56z m39.684-144.746v14.588h14.588v-14.588h-14.588z m-22.664 122.818l12.308 7.82a158.07 158.07 0 0 0 7.564-13.272l-13.002-6.61a146.96 146.96 0 0 1-6.87 12.062z m12.558-24.732l13.572 5.352a159.396 159.396 0 0 0 4.91-14.472l-14.018-4.022a143.55 143.55 0 0 1-4.464 13.142zM234.78 415.036l188.7-188.7 10.314 10.312-188.7 188.7z" fill="#4A555F" p-id="15347"></path><path d="M224.68 236.66l10.312-10.316 188.7 188.7-10.312 10.316zM605.306 415.04l188.7-188.702 10.316 10.314-188.7 188.7z" fill="#4A555F" p-id="15348"></path><path d="M595.212 236.666l10.314-10.312 188.7 188.7-10.312 10.314zM133.572 354.582h14.588v-14.588h-14.588v14.588z m0-72.938v14.588h14.588v-14.588h-14.588z m0 43.764h14.588v-14.588h-14.588v14.588zM879.324 354.582h14.588v-14.588h-14.588v14.588z m0-72.938v14.588h14.588v-14.588h-14.588z m0 43.764h14.588v-14.588h-14.588v14.588zM504.438 325.408h14.588v-14.588h-14.588v14.588z m0 29.174h14.588v-14.588h-14.588v14.588z m0-72.938v14.588h14.588v-14.588h-14.588zM504.438 657.18v14.588h14.588v-14.588h-14.588z m0 72.938h14.588v-14.588h-14.588v14.588z m0-29.174h14.588v-14.588h-14.588v14.588zM607.754 128.936c-1.126-2.572-28.31-62.94-95.754-62.94s-94.63 60.368-95.754 62.94l-1.282 2.922 1.282 2.922c1.124 2.572 28.31 62.942 95.754 62.94 67.444 0 94.63-60.368 95.754-62.94l1.282-2.922-1.282-2.922z m-95.756 54.196c-50.548 0.002-74.984-39.834-80.944-51.246 5.978-11.238 30.818-51.304 80.944-51.304 50.548 0 74.984 39.834 80.944 51.248-5.978 11.238-30.818 51.302-80.944 51.302z" fill="#4A555F" p-id="15349"></path><path d="M547.86 127.076a18.64 18.64 0 0 1-12.498 4.766 18.698 18.698 0 0 1-18.72-18.72c0-6.274 3.064-11.866 7.83-15.22a35.362 35.362 0 0 0-12.498-2.236c-19.936 0-36.178 16.192-36.178 36.176 0 19.986 16.24 36.178 36.178 36.178 19.986 0 36.226-16.192 36.226-36.178 0-1.604-0.096-3.21-0.34-4.766z" fill="#F58E6F" p-id="15350"></path><path d="M69.532 80.302h74.724v103.114H69.532z" fill="#DFDFDF" p-id="15351"></path><path d="M144.254 80.302h74.724v103.114H144.254z" fill="#DFDFDF" p-id="15352"></path><path d="M62.238 73.006v117.702h89.312V73.006H62.238z m74.724 103.116H76.826V87.594h60.136v88.528z" fill="#4A555F" p-id="15353"></path><path d="M136.962 73.006v117.702h89.312V73.006H136.962z m74.724 103.116H151.55V87.594h60.136v88.528z" fill="#4A555F" p-id="15354"></path><path d="M62.238 176.122v35.708h164.034V176.122H62.238z m149.448 21.122h-134.86v-6.534h134.86v6.534zM141.07 426.96c-31.226 0-59.556 19.696-70.502 49.012l13.666 5.1c8.828-23.64 31.668-39.524 56.836-39.524 25.172 0 48.008 15.884 56.83 39.524l13.666-5.1c-10.936-29.314-39.27-49.012-70.496-49.012zM197.624 524.216c-9.15 23.552-31.35 38.77-56.556 38.77-25.21 0-47.41-15.216-56.556-38.768l-13.6 5.28c11.344 29.204 38.882 48.074 70.156 48.074 31.27 0 58.806-18.868 70.156-48.072l-13.6-5.284z" fill="#4A555F" p-id="15355"></path><path d="M210.038 449.84l-7.394 24.044-22.566-6.188-3.856 14.07 36.204 9.924 11.554-37.56zM73.032 517.982l-10.826 35.942 13.97 4.208 6.742-22.398 24.304 6.504 3.77-14.092zM509.7 426.96c-31.226 0-59.562 19.696-70.498 49.012l13.666 5.1c8.822-23.64 31.658-39.524 56.83-39.524s48.008 15.884 56.832 39.524l13.666-5.1c-10.934-29.314-39.268-49.012-70.496-49.012zM566.256 524.218c-9.146 23.55-31.346 38.768-56.556 38.768-25.21 0-47.41-15.216-56.556-38.768l-13.6 5.28c11.344 29.204 38.882 48.074 70.156 48.074 31.274 0 58.812-18.87 70.156-48.074l-13.6-5.28z" fill="#4A555F" p-id="15356"></path><path d="M578.674 449.84l-7.398 24.044-22.562-6.188-3.856 14.07 36.2 9.924 11.556-37.558zM441.664 517.982l-10.828 35.942 13.97 4.208 6.744-22.398 24.302 6.504 3.772-14.092zM878.332 426.96c-31.222 0-59.552 19.696-70.498 49.012l13.666 5.1c8.828-23.64 31.664-39.524 56.832-39.524s48.008 15.884 56.836 39.524l13.666-5.1c-10.946-29.314-39.276-49.012-70.502-49.012zM934.892 524.216c-9.15 23.552-31.354 38.77-56.56 38.77s-47.404-15.216-56.556-38.77l-13.6 5.286c11.35 29.204 38.886 48.072 70.156 48.072s58.812-18.868 70.16-48.072l-13.6-5.286z" fill="#4A555F" p-id="15357"></path><path d="M947.304 449.84l-7.398 24.044-22.56-6.188-3.856 14.07 36.198 9.924 11.558-37.558zM810.29 517.982l-10.818 35.946 13.97 4.202 6.744-22.396 24.298 6.504 3.77-14.092zM89.186 102.778H124.6v14.588H89.186zM89.186 124.564H124.6v14.588H89.186zM89.186 146.35H124.6v14.588H89.186zM163.91 102.778h35.416v14.588H163.91zM163.91 124.564h35.416v14.588H163.91zM163.91 146.35h35.416v14.588H163.91zM561.312 855.05l-68.394 62.014-24.996-27.992-10.882 9.716 34.786 38.956 79.288-71.886zM898.194 44.57H875.04c-28.834 0-52.292 23.456-52.292 52.29h14.588c0-20.79 16.914-37.702 37.704-37.702h23.154c20.79 0 37.698 16.912 37.698 37.702v32.798a30.8 30.8 0 0 1-13.006 25.118l-5.542 3.92a45.166 45.166 0 0 0-18.314 28.23l-1.202 6.072c-2.142 10.848-11.73 18.724-22.788 18.724-20.79 0-37.704-16.912-37.704-37.702h-14.588c0 28.834 23.458 52.288 52.292 52.288 18.006 0 33.61-12.822 37.1-30.48l1.202-6.068a30.62 30.62 0 0 1 12.422-19.148l5.546-3.92a45.412 45.412 0 0 0 19.17-37.032v-32.8c0.002-28.834-23.456-52.29-52.286-52.29z" fill="#4A555F" p-id="15358"></path><path d="M898.192 76.176h-23.154c-11.402 0-20.68 9.278-20.68 20.682v77.16c0 11.404 9.278 20.682 20.68 20.682a6.234 6.234 0 0 0 6.098-5.012l1.206-6.068a62.06 62.06 0 0 1 25.182-38.824l5.532-3.912a13.772 13.772 0 0 0 5.822-11.226v-32.8c-0.002-11.402-9.28-20.682-20.686-20.682z" fill="#FFD452" p-id="15359"></path><path d="M887.378 78.548c-16.022 0-29.056 13.032-29.056 29.054v46.55h14.588V107.602c0-7.978 6.492-14.466 14.47-14.466 7.978 0 14.464 6.49 14.464 14.466v27.836h14.588V107.602c-0.002-16.02-13.038-29.054-29.054-29.054z" fill="#4A555F" p-id="15360"></path><path d="M866.874 125.168h-1.258v14.588h1.258a13.224 13.224 0 0 1 13.21 13.208 13.15 13.15 0 0 1-4.824 10.202l-14.274 11.73 9.26 11.274 14.274-11.73a27.698 27.698 0 0 0 10.152-21.476c0-15.326-12.47-27.796-27.798-27.796z" fill="#4A555F" p-id="15361"></path></svg>