<?xml version="1.0" standalone="no"?><!DOCTYPE svg PUBLIC "-//W3C//DTD SVG 1.1//EN" "http://www.w3.org/Graphics/SVG/1.1/DTD/svg11.dtd"><svg t="1659607237765" class="icon" viewBox="0 0 1024 1024" version="1.1" xmlns="http://www.w3.org/2000/svg" p-id="10691" xmlns:xlink="http://www.w3.org/1999/xlink" width="200" height="200"><defs><style type="text/css"></style></defs><path d="M897.593538 209.051598L574.331507 17.150764a122.017871 122.017871 0 0 0-124.705678 0.042663L126.363798 209.051598A128.972037 128.972037 0 0 0 64.032291 320.104926v383.759004c0 45.778034 23.76362 88.14298 62.374171 111.053328l323.262031 191.85817a122.017871 122.017871 0 0 0 124.663014 0l323.262031-191.85817a128.972037 128.972037 0 0 0 62.374171-111.053328V320.104926A128.886709 128.886709 0 0 0 897.593538 209.051598zM647.243585 808.304401l0.554626 27.56068c0.042664 3.32776-2.13318 7.12482-4.735658 8.447391l-16.340156 9.385991c-2.602479 1.322571-4.735659-0.298645-4.778322-3.626406l-0.298645-27.09138c-13.993658 5.802248-28.15797 7.210147-37.202652 3.583741-1.706544-0.682617-2.431825-3.199769-1.749207-6.058229l5.930239-24.915538a10.239262 10.239262 0 0 1 2.943788-5.162294 6.954165 6.954165 0 0 1 1.535889-1.109254c0.938599-0.4693 1.834534-0.59729 2.645143-0.255981 9.769962 3.285097 22.227731 1.749207 34.2162-4.309023 15.230902-7.72211 25.4275-23.251657 25.256846-38.695877-0.127991-13.993658-7.72211-19.83857-26.152781-19.966561-23.464975 0.042664-45.394061-4.565004-45.73537-39.122513-0.298645-28.456615 14.505621-58.065148 37.927932-76.794465l-0.298645-27.816661c-0.042664-3.413087 2.047852-7.167483 4.735659-8.532719l15.785529-10.068607c2.602479-1.322571 4.735659 0.298645 4.778322 3.711732l0.255981 27.859325c11.64716-4.650331 21.801095-5.887576 30.973768-3.754396 2.005189 0.511963 2.858461 3.242433 2.047852 6.442203l-6.143557 24.659556a10.879216 10.879216 0 0 1-2.773133 4.948976 6.868838 6.868838 0 0 1-1.621217 1.194581 3.541078 3.541078 0 0 1-2.431825 0.383972c-4.181032-0.938599-14.164312-3.114442-29.82185 4.820986-16.425483 8.3194-22.185067 22.611703-22.057077 33.192274 0.127991 12.671087 6.612857 16.51081 29.053906 16.894782 29.864514 0.511963 42.791582 13.567022 43.090227 43.644854 0.298645 29.395214-15.44422 61.136926-39.591812 80.54886z m169.502448-46.375323c0 2.559815-0.341309 4.948977-2.474488 6.18622l-81.743441 49.660421c-2.13318 1.237244-3.839723 0.170654-3.839724-2.389161v-21.075815c0-2.559815 1.578553-3.967714 3.711733-5.204958l80.506197-48.167194c2.13318-1.237244 3.839723-0.170654 3.839723 2.389161v18.601326z m56.145286-471.944648l-305.812623 188.871719c-38.141251 22.313058-66.256557 47.313923-66.256557 93.305274v376.847503c0 27.518016 11.092534 45.351398 28.15797 50.513692a98.296914 98.296914 0 0 1-16.980109 1.66388c-17.918708 0-35.538772-4.863649-51.068319-14.078985L137.66965 795.249342a106.402997 106.402997 0 0 1-51.238974-91.385412V320.104926c0-37.586624 19.625252-72.613432 51.238974-91.385413L460.931681 36.818679a99.918131 99.918131 0 0 1 102.136638 0l323.262031 191.900834a105.763043 105.763043 0 0 1 49.660421 73.89334c-10.751225-22.867685-34.898818-29.096569-63.099452-12.628423z" p-id="10692"></path></svg>