<?xml version="1.0" standalone="no"?><!DOCTYPE svg PUBLIC "-//W3C//DTD SVG 1.1//EN" "http://www.w3.org/Graphics/SVG/1.1/DTD/svg11.dtd"><svg t="1659607460328" class="icon" viewBox="0 0 1024 1024" version="1.1" xmlns="http://www.w3.org/2000/svg" p-id="14253" xmlns:xlink="http://www.w3.org/1999/xlink" width="200" height="200"><defs><style type="text/css"></style></defs><path d="M322.794 147.1C58.804 194.251-29.193 492.508 180.793 629.026c11.514 7.4 11.514 6.581-5.759 58.118l-14.802 44.133 53.183-28.51 53.182-28.507 28.236 6.853c29.604 7.4 67.437 12.609 92.655 12.609h15.08l-5.211-20.013c-41.393-152.417 101.703-303.466 287.84-303.466h25.221l-5.209-18.092c-40.848-142.822-213.275-235.206-382.415-205.05z m-23.028 133.503c27.961 18.918 29.607 59.763 2.74 77.308-43.585 28.509-94.574-21.659-65.243-64.424 12.884-19.188 43.863-25.493 62.503-12.884z m224.79 0c46.054 30.978 11.514 102.526-40.026 82.788-37.28-14.254-41.668-65.516-6.853-83.883 13.706-7.402 35.09-6.854 46.879 1.095z m101.703 112.944c-130.762 23.848-221.5 123.084-216.29 237.124C416.82 783.363 595.83 888.63 767.71 841.479l20.285-5.483 42.766 23.029c23.576 12.884 43.313 22.205 43.86 21.107 0.55-1.37-4.11-17.817-10.14-36.732-13.707-42.218-13.982-39.203 4.386-52.36 206.693-148.308 25.22-446.014-242.609-397.493z m-5.208 123.084c11.51 7.676 17.542 26.866 12.609 40.848-10.416 29.88-55.1 32.071-67.164 3.288-13.707-33.17 24.126-63.873 54.555-44.136z m183.12 3.29c18.091 17.27 15.077 46.604-6.031 57.569-32.347 16.447-66.339-16.448-49.617-47.974 10.964-20.286 39.2-25.22 55.647-9.595z" p-id="14254"></path></svg>