<?xml version="1.0" standalone="no"?><!DOCTYPE svg PUBLIC "-//W3C//DTD SVG 1.1//EN" "http://www.w3.org/Graphics/SVG/1.1/DTD/svg11.dtd"><svg t="1659607036405" class="icon" viewBox="0 0 1024 1024" version="1.1" xmlns="http://www.w3.org/2000/svg" p-id="6882" xmlns:xlink="http://www.w3.org/1999/xlink" width="200" height="200"><defs><style type="text/css"></style></defs><path d="M871.68 277.12L972.8 491.52V569.6s-8.32 76.16-78.08 95.36H108.16S57.6 668.16 44.8 646.4V516.48s-2.56-34.56 38.4-52.48l202.24-49.28s123.52-136.32 154.24-144.64l432 7.04z" fill="#F8F8FF" p-id="6883"></path><path d="M99.84 678.4c-17.92 0-53.12-3.2-65.92-25.6-1.28-1.92-1.92-4.48-1.92-6.4V516.48c0-5.76 0-44.16 46.08-64 0.64 0 1.28-0.64 1.92-0.64l198.4-48c26.24-28.8 126.72-136.96 157.44-145.28 1.28 0 2.56-0.64 3.84-0.64l432 6.4c5.12 0 9.6 3.2 11.52 7.04L984.32 486.4c0.64 1.92 1.28 3.84 1.28 5.76V571.52c-0.64 3.2-10.24 85.12-87.68 106.88-1.28 0-2.56 0.64-3.2 0.64H108.16c-1.28-0.64-4.48-0.64-8.32-0.64zM57.6 642.56c8.32 8.32 33.92 11.52 49.92 10.24H892.8c56.32-16.64 66.56-76.8 67.2-83.84V494.72l-96-204.8-421.76-6.4c-19.2 7.68-88.32 76.16-146.56 140.16-1.92 1.92-3.84 3.2-6.4 3.84l-201.6 49.28c-30.72 14.08-30.08 38.4-30.08 39.04v126.72z" fill="#708DB7" p-id="6884"></path><path d="M771.2 659.2m-140.16 0a140.16 140.16 0 1 0 280.32 0 140.16 140.16 0 1 0-280.32 0Z" fill="#CBD6E2" p-id="6885"></path><path d="M771.2 812.16c-84.48 0-152.96-68.48-152.96-152.96s68.48-152.96 152.96-152.96 152.96 68.48 152.96 152.96-69.12 152.96-152.96 152.96z m0-280.32c-70.4 0-127.36 56.96-127.36 127.36s56.96 127.36 127.36 127.36c70.4 0 127.36-56.96 127.36-127.36s-57.6-127.36-127.36-127.36z" fill="#708DB7" p-id="6886"></path><path d="M771.2 659.2m-56.32 0a56.32 56.32 0 1 0 112.64 0 56.32 56.32 0 1 0-112.64 0Z" fill="#DFECF7" p-id="6887"></path><path d="M771.2 728.32c-38.4 0-69.12-30.72-69.12-69.12s30.72-69.12 69.12-69.12 69.12 30.72 69.12 69.12-31.36 69.12-69.12 69.12z m0-112.64c-23.68 0-43.52 19.2-43.52 43.52s19.2 43.52 43.52 43.52 43.52-19.2 43.52-43.52-19.84-43.52-43.52-43.52z" fill="#708DB7" p-id="6888"></path><path d="M305.92 667.52m-140.16 0a140.16 140.16 0 1 0 280.32 0 140.16 140.16 0 1 0-280.32 0Z" fill="#CBD6E2" p-id="6889"></path><path d="M305.92 820.48c-84.48 0-152.96-68.48-152.96-152.96s68.48-152.96 152.96-152.96 152.96 68.48 152.96 152.96-69.12 152.96-152.96 152.96z m0-280.32c-70.4 0-127.36 56.96-127.36 127.36s56.96 127.36 127.36 127.36c70.4 0 127.36-56.96 127.36-127.36s-57.6-127.36-127.36-127.36z" fill="#708DB7" p-id="6890"></path><path d="M305.92 667.52m-56.32 0a56.32 56.32 0 1 0 112.64 0 56.32 56.32 0 1 0-112.64 0Z" fill="#DFECF7" p-id="6891"></path><path d="M305.92 736.64c-38.4 0-69.12-30.72-69.12-69.12s30.72-69.12 69.12-69.12 69.12 30.72 69.12 69.12-31.36 69.12-69.12 69.12z m0-112.64c-23.68 0-43.52 19.2-43.52 43.52s19.2 43.52 43.52 43.52 43.52-19.2 43.52-43.52-19.84-43.52-43.52-43.52z" fill="#708DB7" p-id="6892"></path><path d="M117.76 464s5.76 64-65.92 96.64l1.92-55.68s2.56-28.8 32.64-39.04l31.36-8.32v6.4z" fill="#FEF185" p-id="6893"></path><path d="M38.4 580.48l2.56-76.8c0-1.28 3.2-37.12 40.96-49.92h0.64L128 441.6l2.56 21.12c0 3.2 5.76 73.6-73.6 109.44L38.4 580.48zM65.92 505.6l-0.64 32.64c31.36-21.76 38.4-49.92 39.68-64.64l-15.36 4.48c-20.48 7.04-23.04 25.6-23.68 27.52z" fill="#708DB7" p-id="6894"></path><path d="M850.56 309.12l55.04 131.2-568.96-9.6 122.24-128.64z" fill="#D0E5FE" p-id="6895"></path><path d="M905.6 454.4l-569.6-10.24c-5.12 0-9.6-3.2-11.52-8.32s-1.28-10.24 2.56-14.08l122.24-128.64c2.56-2.56 5.76-4.48 9.6-3.84l391.68 6.4c5.12 0 9.6 3.2 11.52 7.68l55.68 131.2c1.92 3.84 1.28 8.96-1.28 12.8-2.56 4.48-6.4 7.04-10.88 7.04z m-539.52-35.84l520.32 8.32-44.8-105.6-377.6-6.4-97.92 103.68z" fill="#708DB7" p-id="6896"></path><path d="M582.4 300.8v147.2" fill="#F8F8FF" p-id="6897"></path><path d="M569.6 300.8h25.6v147.2h-25.6z" fill="#708DB7" p-id="6898"></path><path d="M246.4 355.2h-0.64c-7.04-0.64-12.16-6.4-12.16-13.44 1.92-31.36 27.52-42.88 44.16-42.88 7.04 0 12.8 5.76 12.8 12.8s-5.76 12.8-12.8 12.8c-3.84 0-17.28 1.92-18.56 19.2 0 6.4-5.76 11.52-12.8 11.52z" fill="#708DB7" p-id="6899"></path><path d="M197.76 336.64h-0.64c-7.04-0.64-12.16-6.4-12.16-13.44 3.2-51.84 44.8-65.92 66.56-65.92 7.04 0 12.8 5.76 12.8 12.8s-5.76 12.8-12.8 12.8c-3.84 0-38.4 1.92-40.96 41.6-0.64 6.4-6.4 12.16-12.8 12.16z" fill="#708DB7" p-id="6900"></path><path d="M136.32 322.56h-0.64c-7.04-0.64-12.16-6.4-12.16-13.44 4.48-83.2 71.04-104.96 104.96-104.96 7.04 0 12.8 5.76 12.8 12.8s-5.76 12.8-12.8 12.8c-3.2 0-74.88 1.28-80 80.64 0 7.04-5.76 12.16-12.16 12.16z" fill="#708DB7" p-id="6901"></path><path d="M524.8 486.4h44.8" fill="#F8F8FF" p-id="6902"></path><path d="M569.6 499.2h-44.8c-7.04 0-12.8-5.76-12.8-12.8s5.76-12.8 12.8-12.8h44.8c7.04 0 12.8 5.76 12.8 12.8s-5.76 12.8-12.8 12.8z" fill="#708DB7" p-id="6903"></path></svg>